<mxfile host="Electron" agent="Mozilla/5.0 (Windows NT 10.0; Win64; x64) AppleWebKit/537.36 (KHTML, like Gecko) draw.io/24.7.17 Chrome/128.0.6613.36 Electron/32.0.1 Safari/537.36" version="24.7.17">
  <diagram id="readFontFile" name="readFontFile">
    <mxGraphModel dx="319" dy="-744" grid="1" gridSize="10" guides="1" tooltips="1" connect="1" arrows="1" fold="1" page="1" pageScale="1" pageWidth="827" pageHeight="1169" math="0" shadow="0">
      <root>
        <mxCell id="0" />
        <mxCell id="1" parent="0" />
        <mxCell id="29" value="" style="endArrow=classic;html=1;exitX=0;exitY=0.5;entryX=0;entryY=0.5;fontColor=#FFFFFF;" parent="1" edge="1">
          <mxGeometry width="50" height="50" relative="1" as="geometry">
            <Array as="points">
              <mxPoint x="100" y="760" />
              <mxPoint x="100" y="630" />
            </Array>
            <mxPoint x="180" y="789.9999999999998" as="targetPoint" />
          </mxGeometry>
        </mxCell>
        <mxCell id="bhgpeHR8O1kuA0RNMsS5-29" value="handleLineBreak()" style="swimlane;whiteSpace=wrap;html=1;fillColor=#ffe6cc;strokeColor=#d79b00;" vertex="1" parent="1">
          <mxGeometry y="1169" width="154" height="240.52" as="geometry" />
        </mxCell>
        <mxCell id="bhgpeHR8O1kuA0RNMsS5-30" value="currentx to 0" style="rounded=1;whiteSpace=wrap;html=1;" vertex="1" parent="bhgpeHR8O1kuA0RNMsS5-29">
          <mxGeometry x="41.75" y="34.520000000000095" width="83.5" height="27" as="geometry" />
        </mxCell>
        <mxCell id="bhgpeHR8O1kuA0RNMsS5-31" value="set the y coordinate to the lin below" style="rounded=1;whiteSpace=wrap;html=1;" vertex="1" parent="bhgpeHR8O1kuA0RNMsS5-29">
          <mxGeometry x="24.610000000000014" y="129.51999999999998" width="117.78" height="27" as="geometry" />
        </mxCell>
        <mxCell id="bhgpeHR8O1kuA0RNMsS5-32" value="return updated coordinates" style="rounded=1;whiteSpace=wrap;html=1;" vertex="1" parent="bhgpeHR8O1kuA0RNMsS5-29">
          <mxGeometry x="24.61" y="194.52" width="117.78" height="36.48" as="geometry" />
        </mxCell>
        <mxCell id="bhgpeHR8O1kuA0RNMsS5-33" style="edgeStyle=orthogonalEdgeStyle;rounded=0;orthogonalLoop=1;jettySize=auto;html=1;exitX=0.5;exitY=1;exitDx=0;exitDy=0;" edge="1" parent="bhgpeHR8O1kuA0RNMsS5-29" source="bhgpeHR8O1kuA0RNMsS5-31" target="bhgpeHR8O1kuA0RNMsS5-32">
          <mxGeometry relative="1" as="geometry" />
        </mxCell>
        <mxCell id="bhgpeHR8O1kuA0RNMsS5-34" value="currenty = currentY - 5" style="edgeLabel;html=1;align=center;verticalAlign=middle;resizable=0;points=[];" vertex="1" connectable="0" parent="bhgpeHR8O1kuA0RNMsS5-33">
          <mxGeometry x="-0.1824" y="2" relative="1" as="geometry">
            <mxPoint as="offset" />
          </mxGeometry>
        </mxCell>
        <mxCell id="bhgpeHR8O1kuA0RNMsS5-35" style="edgeStyle=orthogonalEdgeStyle;rounded=0;orthogonalLoop=1;jettySize=auto;html=1;exitX=0.5;exitY=1;exitDx=0;exitDy=0;" edge="1" parent="bhgpeHR8O1kuA0RNMsS5-29" source="bhgpeHR8O1kuA0RNMsS5-30" target="bhgpeHR8O1kuA0RNMsS5-31">
          <mxGeometry relative="1" as="geometry">
            <mxPoint x="83.38043478260875" y="126" as="targetPoint" />
          </mxGeometry>
        </mxCell>
        <mxCell id="bhgpeHR8O1kuA0RNMsS5-36" value="Reset position&lt;br&gt;currentx=0" style="edgeLabel;html=1;align=center;verticalAlign=middle;resizable=0;points=[];" vertex="1" connectable="0" parent="bhgpeHR8O1kuA0RNMsS5-35">
          <mxGeometry x="-0.0062" y="-1" relative="1" as="geometry">
            <mxPoint x="1" as="offset" />
          </mxGeometry>
        </mxCell>
      </root>
    </mxGraphModel>
  </diagram>
</mxfile>
